<svg width="24" height="24" viewBox="0 0 24 24" fill="none" xmlns="http://www.w3.org/2000/svg"><path d="M22.46 5.924c-.793.352-1.646.59-2.542.698a4.48 4.48 0 0 0 1.963-2.475 8.94 8.94 0 0 1-2.828 1.082A4.48 4.48 0 0 0 11.1 9.03a12.72 12.72 0 0 1-9.23-4.68 4.48 4.48 0 0 0 1.39 5.98A4.44 4.44 0 0 1 2 9.13v.057a4.48 4.48 0 0 0 3.6 4.39c-.4.11-.82.17-1.25.17-.31 0-.6-.03-.89-.08a4.48 4.48 0 0 0 4.18 3.11A8.98 8.98 0 0 1 2 19.54a12.7 12.7 0 0 0 6.88 2.02c8.26 0 12.78-6.84 12.78-12.78 0-.19-.01-.37-.02-.56A9.22 9.22 0 0 0 24 4.59a8.93 8.93 0 0 1-2.54.7z" fill="#1DA1F2"/></svg>
